<svg xmlns="http://www.w3.org/2000/svg" viewBox="0 0 120 120" fill="none">
  <circle cx="60" cy="60" r="60" fill="url(#bg)"/>
  <defs>
    <linearGradient id="bg" x1="0" y1="0" x2="120" y2="120">
      <stop offset="0%" stop-color="#059669"/>
      <stop offset="100%" stop-color="#047857"/>
    </linearGradient>
  </defs>
  <!-- Palm tree trunk -->
  <path d="M60 95 C60 95, 58 70, 60 50 C62 70, 60 95, 60 95Z" fill="#92400e" opacity="0.9"/>
  <path d="M59 95 C59 95, 57 72, 59 52 C61 72, 59 95, 59 95Z" fill="#a16207" opacity="0.6"/>
  <!-- Palm leaves -->
  <path d="M60 50 C50 40, 30 38, 20 45" stroke="#bbf7d0" stroke-width="3" fill="none" stroke-linecap="round"/>
  <path d="M60 50 C55 35, 45 25, 30 22" stroke="#86efac" stroke-width="3" fill="none" stroke-linecap="round"/>
  <path d="M60 50 C60 30, 55 20, 50 15" stroke="#4ade80" stroke-width="3" fill="none" stroke-linecap="round"/>
  <path d="M60 50 C65 30, 70 20, 75 15" stroke="#4ade80" stroke-width="3" fill="none" stroke-linecap="round"/>
  <path d="M60 50 C70 35, 80 25, 95 22" stroke="#86efac" stroke-width="3" fill="none" stroke-linecap="round"/>
  <path d="M60 50 C75 40, 90 38, 100 45" stroke="#bbf7d0" stroke-width="3" fill="none" stroke-linecap="round"/>
  <!-- Leaf details -->
  <path d="M60 50 C48 42, 32 40, 22 46" stroke="#22c55e" stroke-width="1.5" fill="none" stroke-linecap="round"/>
  <path d="M60 50 C53 36, 42 27, 28 24" stroke="#22c55e" stroke-width="1.5" fill="none" stroke-linecap="round"/>
  <path d="M60 50 C68 36, 78 27, 92 24" stroke="#22c55e" stroke-width="1.5" fill="none" stroke-linecap="round"/>
  <path d="M60 50 C72 42, 88 40, 98 46" stroke="#22c55e" stroke-width="1.5" fill="none" stroke-linecap="round"/>
  <!-- Dates clusters -->
  <circle cx="48" cy="52" r="2.5" fill="#f59e0b"/>
  <circle cx="44" cy="55" r="2" fill="#d97706"/>
  <circle cx="50" cy="56" r="2.2" fill="#f59e0b"/>
  <circle cx="46" cy="58" r="1.8" fill="#d97706"/>
  <circle cx="72" cy="52" r="2.5" fill="#f59e0b"/>
  <circle cx="76" cy="55" r="2" fill="#d97706"/>
  <circle cx="70" cy="56" r="2.2" fill="#f59e0b"/>
  <circle cx="74" cy="58" r="1.8" fill="#d97706"/>
  <!-- Ground -->
  <ellipse cx="60" cy="98" rx="25" ry="4" fill="#065f46" opacity="0.3"/>
  <!-- AI sparkle -->
  <path d="M18 75 L20 80 L22 75 L20 70Z" fill="#fbbf24" opacity="0.8"/>
  <path d="M95 70 L97 75 L99 70 L97 65Z" fill="#fbbf24" opacity="0.8"/>
  <circle cx="15" cy="30" r="1.5" fill="#fde68a" opacity="0.6"/>
  <circle cx="105" cy="35" r="1.5" fill="#fde68a" opacity="0.6"/>
</svg>
